<mxfile host="app.diagrams.net" modified="2024-03-13T00:07:13.288Z" agent="Mozilla/5.0 (Windows NT 10.0; Win64; x64) AppleWebKit/537.36 (KHTML, like Gecko) Chrome/122.0.0.0 Safari/537.36 Edg/122.0.0.0" etag="b17BcK7bAV5a7nILpHoi" version="24.0.4" type="device">
  <diagram name="Página-1" id="9De-RssknvwaS2Ulo29_">
    <mxGraphModel dx="1774" dy="1982" grid="1" gridSize="10" guides="1" tooltips="1" connect="1" arrows="1" fold="1" page="1" pageScale="1" pageWidth="827" pageHeight="1169" math="0" shadow="0">
      <root>
        <mxCell id="0" />
        <mxCell id="1" parent="0" />
        <mxCell id="WeKi6xh1KA0xCjDveD7B-3" value="" style="edgeStyle=orthogonalEdgeStyle;rounded=0;orthogonalLoop=1;jettySize=auto;html=1;" edge="1" parent="1" source="WeKi6xh1KA0xCjDveD7B-1" target="WeKi6xh1KA0xCjDveD7B-2">
          <mxGeometry relative="1" as="geometry" />
        </mxCell>
        <mxCell id="WeKi6xh1KA0xCjDveD7B-1" value="INICIO" style="ellipse;whiteSpace=wrap;html=1;fillColor=#5EA9FF;" vertex="1" parent="1">
          <mxGeometry x="10" y="50" width="120" height="80" as="geometry" />
        </mxCell>
        <mxCell id="WeKi6xh1KA0xCjDveD7B-5" value="" style="edgeStyle=orthogonalEdgeStyle;rounded=0;orthogonalLoop=1;jettySize=auto;html=1;" edge="1" parent="1" source="WeKi6xh1KA0xCjDveD7B-2" target="WeKi6xh1KA0xCjDveD7B-4">
          <mxGeometry relative="1" as="geometry" />
        </mxCell>
        <mxCell id="WeKi6xh1KA0xCjDveD7B-2" value="&quot;Solicitar numero entre 1 y 10&quot;" style="shape=parallelogram;perimeter=parallelogramPerimeter;whiteSpace=wrap;html=1;fixedSize=1;fillColor=#80FF00;" vertex="1" parent="1">
          <mxGeometry x="240" y="60" width="210" height="60" as="geometry" />
        </mxCell>
        <mxCell id="WeKi6xh1KA0xCjDveD7B-7" value="" style="edgeStyle=orthogonalEdgeStyle;rounded=0;orthogonalLoop=1;jettySize=auto;html=1;" edge="1" parent="1" source="WeKi6xh1KA0xCjDveD7B-4" target="WeKi6xh1KA0xCjDveD7B-6">
          <mxGeometry relative="1" as="geometry" />
        </mxCell>
        <mxCell id="WeKi6xh1KA0xCjDveD7B-9" value="" style="edgeStyle=orthogonalEdgeStyle;rounded=0;orthogonalLoop=1;jettySize=auto;html=1;" edge="1" parent="1" source="WeKi6xh1KA0xCjDveD7B-4" target="WeKi6xh1KA0xCjDveD7B-8">
          <mxGeometry relative="1" as="geometry" />
        </mxCell>
        <mxCell id="WeKi6xh1KA0xCjDveD7B-4" value="¿El numero esta entre el 1 y 10?" style="rhombus;whiteSpace=wrap;html=1;fillColor=#474D0A;" vertex="1" parent="1">
          <mxGeometry x="600" y="20" width="150" height="140" as="geometry" />
        </mxCell>
        <mxCell id="WeKi6xh1KA0xCjDveD7B-11" value="" style="edgeStyle=orthogonalEdgeStyle;rounded=0;orthogonalLoop=1;jettySize=auto;html=1;" edge="1" parent="1" source="WeKi6xh1KA0xCjDveD7B-6" target="WeKi6xh1KA0xCjDveD7B-10">
          <mxGeometry relative="1" as="geometry" />
        </mxCell>
        <mxCell id="WeKi6xh1KA0xCjDveD7B-6" value="NO" style="shape=parallelogram;perimeter=parallelogramPerimeter;whiteSpace=wrap;html=1;fixedSize=1;fillColor=#80FF00;" vertex="1" parent="1">
          <mxGeometry x="872.5" y="60" width="120" height="60" as="geometry" />
        </mxCell>
        <mxCell id="WeKi6xh1KA0xCjDveD7B-14" value="" style="edgeStyle=orthogonalEdgeStyle;rounded=0;orthogonalLoop=1;jettySize=auto;html=1;" edge="1" parent="1" source="WeKi6xh1KA0xCjDveD7B-8" target="WeKi6xh1KA0xCjDveD7B-13">
          <mxGeometry relative="1" as="geometry" />
        </mxCell>
        <mxCell id="WeKi6xh1KA0xCjDveD7B-8" value="SI" style="shape=parallelogram;perimeter=parallelogramPerimeter;whiteSpace=wrap;html=1;fixedSize=1;fillColor=#80FF00;" vertex="1" parent="1">
          <mxGeometry x="615" y="280" width="120" height="60" as="geometry" />
        </mxCell>
        <mxCell id="WeKi6xh1KA0xCjDveD7B-12" style="edgeStyle=orthogonalEdgeStyle;rounded=0;orthogonalLoop=1;jettySize=auto;html=1;entryX=0.5;entryY=0;entryDx=0;entryDy=0;" edge="1" parent="1" source="WeKi6xh1KA0xCjDveD7B-10" target="WeKi6xh1KA0xCjDveD7B-1">
          <mxGeometry relative="1" as="geometry" />
        </mxCell>
        <mxCell id="WeKi6xh1KA0xCjDveD7B-10" value="&quot;Mostrar mensaje de error&quot;" style="shape=parallelogram;perimeter=parallelogramPerimeter;whiteSpace=wrap;html=1;fixedSize=1;fillColor=#80FF00;" vertex="1" parent="1">
          <mxGeometry x="845" y="-80" width="175" height="60" as="geometry" />
        </mxCell>
        <mxCell id="WeKi6xh1KA0xCjDveD7B-16" value="" style="edgeStyle=orthogonalEdgeStyle;rounded=0;orthogonalLoop=1;jettySize=auto;html=1;" edge="1" parent="1" source="WeKi6xh1KA0xCjDveD7B-13" target="WeKi6xh1KA0xCjDveD7B-15">
          <mxGeometry relative="1" as="geometry" />
        </mxCell>
        <mxCell id="WeKi6xh1KA0xCjDveD7B-13" value="&quot;Leer archivo de multiplicar&quot;" style="shape=parallelogram;perimeter=parallelogramPerimeter;whiteSpace=wrap;html=1;fixedSize=1;fillColor=#80FF00;" vertex="1" parent="1">
          <mxGeometry x="597.5" y="430" width="155" height="60" as="geometry" />
        </mxCell>
        <mxCell id="WeKi6xh1KA0xCjDveD7B-18" value="" style="edgeStyle=orthogonalEdgeStyle;rounded=0;orthogonalLoop=1;jettySize=auto;html=1;" edge="1" parent="1" source="WeKi6xh1KA0xCjDveD7B-15" target="WeKi6xh1KA0xCjDveD7B-17">
          <mxGeometry relative="1" as="geometry" />
        </mxCell>
        <mxCell id="WeKi6xh1KA0xCjDveD7B-15" value="&quot;Mostrar tabla de multiplicar&quot;" style="shape=parallelogram;perimeter=parallelogramPerimeter;whiteSpace=wrap;html=1;fixedSize=1;fillColor=#80FF00;" vertex="1" parent="1">
          <mxGeometry x="542.5" y="570" width="265" height="60" as="geometry" />
        </mxCell>
        <mxCell id="WeKi6xh1KA0xCjDveD7B-17" value="FIN" style="ellipse;whiteSpace=wrap;html=1;fillColor=#5EA9FF;" vertex="1" parent="1">
          <mxGeometry x="607.5" y="710" width="135" height="80" as="geometry" />
        </mxCell>
      </root>
    </mxGraphModel>
  </diagram>
</mxfile>
